<mxfile host="app.diagrams.net" agent="Mozilla/5.0 (Windows NT 10.0; Win64; x64) AppleWebKit/537.36 (KHTML, like Gecko) Chrome/132.0.0.0 Safari/537.36" version="26.0.10">
  <diagram name="Page-1" id="5yTConWs5JeKKFf_RoLr">
    <mxGraphModel dx="613" dy="614" grid="1" gridSize="10" guides="1" tooltips="1" connect="1" arrows="1" fold="1" page="1" pageScale="1" pageWidth="827" pageHeight="1169" math="0" shadow="0">
      <root>
        <mxCell id="0" />
        <mxCell id="1" parent="0" />
        <mxCell id="mq2eGTBwY-Je7kz1Fum_-1" value="Boat" style="rounded=0;whiteSpace=wrap;html=1;" vertex="1" parent="1">
          <mxGeometry x="190" y="90" width="120" height="60" as="geometry" />
        </mxCell>
        <mxCell id="mq2eGTBwY-Je7kz1Fum_-2" value="Path" style="rounded=0;whiteSpace=wrap;html=1;" vertex="1" parent="1">
          <mxGeometry x="190" y="280" width="120" height="60" as="geometry" />
        </mxCell>
        <mxCell id="mq2eGTBwY-Je7kz1Fum_-3" value="Grib" style="rounded=0;whiteSpace=wrap;html=1;" vertex="1" parent="1">
          <mxGeometry x="390" y="380" width="120" height="60" as="geometry" />
        </mxCell>
        <mxCell id="mq2eGTBwY-Je7kz1Fum_-4" value="Routing_Model" style="rounded=0;whiteSpace=wrap;html=1;" vertex="1" parent="1">
          <mxGeometry x="190" y="380" width="120" height="60" as="geometry" />
        </mxCell>
        <mxCell id="mq2eGTBwY-Je7kz1Fum_-9" value="" style="endArrow=diamondThin;endFill=0;endSize=24;html=1;rounded=0;exitX=0.5;exitY=1;exitDx=0;exitDy=0;entryX=0.5;entryY=0;entryDx=0;entryDy=0;" edge="1" parent="1" source="mq2eGTBwY-Je7kz1Fum_-1" target="mq2eGTBwY-Je7kz1Fum_-2">
          <mxGeometry width="160" relative="1" as="geometry">
            <mxPoint x="260" y="180" as="sourcePoint" />
            <mxPoint x="420" y="180" as="targetPoint" />
          </mxGeometry>
        </mxCell>
        <mxCell id="mq2eGTBwY-Je7kz1Fum_-10" value="" style="endArrow=diamondThin;endFill=0;endSize=24;html=1;rounded=0;exitX=0.5;exitY=1;exitDx=0;exitDy=0;entryX=0.5;entryY=0;entryDx=0;entryDy=0;" edge="1" parent="1" source="mq2eGTBwY-Je7kz1Fum_-2" target="mq2eGTBwY-Je7kz1Fum_-4">
          <mxGeometry width="160" relative="1" as="geometry">
            <mxPoint x="259.7" y="260" as="sourcePoint" />
            <mxPoint x="259.7" y="310" as="targetPoint" />
          </mxGeometry>
        </mxCell>
        <mxCell id="mq2eGTBwY-Je7kz1Fum_-11" value="" style="endArrow=diamondThin;endFill=0;endSize=24;html=1;rounded=0;entryX=1;entryY=0.5;entryDx=0;entryDy=0;" edge="1" parent="1" source="mq2eGTBwY-Je7kz1Fum_-3" target="mq2eGTBwY-Je7kz1Fum_-4">
          <mxGeometry width="160" relative="1" as="geometry">
            <mxPoint x="380" y="240" as="sourcePoint" />
            <mxPoint x="380" y="290" as="targetPoint" />
          </mxGeometry>
        </mxCell>
        <mxCell id="mq2eGTBwY-Je7kz1Fum_-12" value="LinearBestIsoRouter (libweatherrouting)" style="html=1;whiteSpace=wrap;" vertex="1" parent="1">
          <mxGeometry x="680" y="170" width="120" height="70" as="geometry" />
        </mxCell>
        <mxCell id="mq2eGTBwY-Je7kz1Fum_-13" value="Routing (libweatherrouting)" style="html=1;whiteSpace=wrap;" vertex="1" parent="1">
          <mxGeometry x="370" y="85" width="110" height="70" as="geometry" />
        </mxCell>
        <mxCell id="mq2eGTBwY-Je7kz1Fum_-17" value="Router&lt;div&gt;(libweatherrouting)&lt;/div&gt;" style="html=1;whiteSpace=wrap;" vertex="1" parent="1">
          <mxGeometry x="530" y="180" width="110" height="50" as="geometry" />
        </mxCell>
        <mxCell id="mq2eGTBwY-Je7kz1Fum_-19" value="" style="endArrow=block;dashed=0;endFill=0;endSize=12;html=1;rounded=0;exitX=1;exitY=0.5;exitDx=0;exitDy=0;entryX=0;entryY=0.5;entryDx=0;entryDy=0;" edge="1" parent="1" source="mq2eGTBwY-Je7kz1Fum_-17" target="mq2eGTBwY-Je7kz1Fum_-12">
          <mxGeometry width="160" relative="1" as="geometry">
            <mxPoint x="400" y="220" as="sourcePoint" />
            <mxPoint x="560" y="220" as="targetPoint" />
          </mxGeometry>
        </mxCell>
        <mxCell id="mq2eGTBwY-Je7kz1Fum_-21" value="Grib&lt;div&gt;(libweatherrouting)&lt;/div&gt;" style="html=1;whiteSpace=wrap;" vertex="1" parent="1">
          <mxGeometry x="530" y="275" width="110" height="70" as="geometry" />
        </mxCell>
        <mxCell id="mq2eGTBwY-Je7kz1Fum_-22" value="" style="endArrow=diamondThin;endFill=0;endSize=24;html=1;rounded=0;exitX=0.5;exitY=0;exitDx=0;exitDy=0;entryX=0.5;entryY=1;entryDx=0;entryDy=0;" edge="1" parent="1" source="mq2eGTBwY-Je7kz1Fum_-21" target="mq2eGTBwY-Je7kz1Fum_-17">
          <mxGeometry width="160" relative="1" as="geometry">
            <mxPoint x="430" y="60" as="sourcePoint" />
            <mxPoint x="470" y="60" as="targetPoint" />
          </mxGeometry>
        </mxCell>
        <mxCell id="mq2eGTBwY-Je7kz1Fum_-24" value="RoutingResult (libweatherrouting)" style="html=1;whiteSpace=wrap;" vertex="1" parent="1">
          <mxGeometry x="380" y="170" width="110" height="70" as="geometry" />
        </mxCell>
        <mxCell id="mq2eGTBwY-Je7kz1Fum_-25" value="" style="endArrow=block;dashed=1;endFill=12;endSize=12;html=1;rounded=0;exitX=1;exitY=0.5;exitDx=0;exitDy=0;" edge="1" parent="1" source="mq2eGTBwY-Je7kz1Fum_-24" target="mq2eGTBwY-Je7kz1Fum_-17">
          <mxGeometry width="160" relative="1" as="geometry">
            <mxPoint x="540" y="320" as="sourcePoint" />
            <mxPoint x="490" y="190" as="targetPoint" />
          </mxGeometry>
        </mxCell>
        <mxCell id="mq2eGTBwY-Je7kz1Fum_-26" value="IsoPoint (libweatherrouting)" style="html=1;whiteSpace=wrap;" vertex="1" parent="1">
          <mxGeometry x="530" y="70" width="110" height="70" as="geometry" />
        </mxCell>
        <mxCell id="mq2eGTBwY-Je7kz1Fum_-27" value="" style="endArrow=block;dashed=1;endFill=12;endSize=12;html=1;rounded=0;exitX=0.5;exitY=1;exitDx=0;exitDy=0;entryX=0.5;entryY=0;entryDx=0;entryDy=0;" edge="1" parent="1" source="mq2eGTBwY-Je7kz1Fum_-26" target="mq2eGTBwY-Je7kz1Fum_-17">
          <mxGeometry width="160" relative="1" as="geometry">
            <mxPoint x="445" y="210" as="sourcePoint" />
            <mxPoint x="439" y="165" as="targetPoint" />
          </mxGeometry>
        </mxCell>
        <mxCell id="mq2eGTBwY-Je7kz1Fum_-29" value="RoutingParam (libweatherrouting)" style="html=1;whiteSpace=wrap;" vertex="1" parent="1">
          <mxGeometry x="660" y="280" width="110" height="70" as="geometry" />
        </mxCell>
        <mxCell id="mq2eGTBwY-Je7kz1Fum_-30" value="" style="endArrow=block;dashed=1;endFill=12;endSize=12;html=1;rounded=0;exitX=0.5;exitY=0;exitDx=0;exitDy=0;" edge="1" parent="1" source="mq2eGTBwY-Je7kz1Fum_-29">
          <mxGeometry width="160" relative="1" as="geometry">
            <mxPoint x="595" y="150" as="sourcePoint" />
            <mxPoint x="640" y="230" as="targetPoint" />
          </mxGeometry>
        </mxCell>
        <mxCell id="mq2eGTBwY-Je7kz1Fum_-31" value="" style="endArrow=block;dashed=1;endFill=12;endSize=12;html=1;rounded=0;exitX=0;exitY=0;exitDx=0;exitDy=0;entryX=1;entryY=0.5;entryDx=0;entryDy=0;" edge="1" parent="1" source="mq2eGTBwY-Je7kz1Fum_-17" target="mq2eGTBwY-Je7kz1Fum_-13">
          <mxGeometry width="160" relative="1" as="geometry">
            <mxPoint x="595" y="150" as="sourcePoint" />
            <mxPoint x="595" y="190" as="targetPoint" />
          </mxGeometry>
        </mxCell>
        <mxCell id="mq2eGTBwY-Je7kz1Fum_-32" value="" style="endArrow=diamondThin;endFill=0;endSize=24;html=1;rounded=0;exitX=1;exitY=0.5;exitDx=0;exitDy=0;entryX=0;entryY=0.5;entryDx=0;entryDy=0;" edge="1" parent="1" source="mq2eGTBwY-Je7kz1Fum_-1" target="mq2eGTBwY-Je7kz1Fum_-13">
          <mxGeometry width="160" relative="1" as="geometry">
            <mxPoint x="500" y="320" as="sourcePoint" />
            <mxPoint x="340" y="130" as="targetPoint" />
          </mxGeometry>
        </mxCell>
        <mxCell id="mq2eGTBwY-Je7kz1Fum_-34" value="" style="endArrow=diamondThin;endFill=0;endSize=24;html=1;rounded=0;exitX=0;exitY=0.5;exitDx=0;exitDy=0;entryX=0;entryY=1;entryDx=0;entryDy=0;" edge="1" parent="1" source="mq2eGTBwY-Je7kz1Fum_-21" target="mq2eGTBwY-Je7kz1Fum_-13">
          <mxGeometry width="160" relative="1" as="geometry">
            <mxPoint x="595" y="285" as="sourcePoint" />
            <mxPoint x="595" y="240" as="targetPoint" />
            <Array as="points">
              <mxPoint x="330" y="310" />
              <mxPoint x="330" y="200" />
            </Array>
          </mxGeometry>
        </mxCell>
      </root>
    </mxGraphModel>
  </diagram>
</mxfile>
